<mxfile host="app.diagrams.net" modified="2021-11-30T16:38:28.515Z" agent="5.0 (Windows)" etag="LZp07JoTstjAn5Lh1d6n" version="15.8.8" type="github">
  <diagram id="6vjGSjXlo1vvEJp9LBcm" name="Page-1">
    <mxGraphModel dx="2062" dy="1112" grid="1" gridSize="10" guides="1" tooltips="1" connect="1" arrows="1" fold="1" page="1" pageScale="1" pageWidth="827" pageHeight="1169" math="0" shadow="0">
      <root>
        <mxCell id="0" />
        <mxCell id="1" parent="0" />
        <mxCell id="fs_x0GuckvLImVWKd3-p-1" value="Hello World" style="rounded=0;whiteSpace=wrap;html=1;" vertex="1" parent="1">
          <mxGeometry x="250" y="350" width="120" height="60" as="geometry" />
        </mxCell>
      </root>
    </mxGraphModel>
  </diagram>
</mxfile>
